# xmcd CD database file
#
# Track frame offsets:
#	150
#	16998
#	38544
#	65810
#	77759
#	95441
#	126888
#	153202
#	186684
#	194625
#	219462
#	237583
#	256006
#	279238
#	304952
#
# Disc length: 4327 seconds
#
# Revision: 1
# Processed by: cddbd v1.5.2PL0 Copyright (c) Steve Scherf et al.
# Submitted via: CDex 1.70beta2
#
DISCID=d410e50f
DTITLE=Max McLean - The Listener's Bible
DYEAR=2003
DGENRE=Speech
TTITLE0=Numbers 9
TTITLE1=Numbers 10
TTITLE2=Numbers 11
TTITLE3=Numbers 12
TTITLE4=Numbers 13
TTITLE5=Numbers 14
TTITLE6=Numbers 15
TTITLE7=Numbers 16
TTITLE8=Numbers 17
TTITLE9=Numbers 18
TTITLE10=Numbers 19
TTITLE11=Numbers 20
TTITLE12=Numbers 21
TTITLE13=Numbers 22
TTITLE14=Numbers 23
EXTD=YEAR: 2003
EXTT0=
EXTT1=
EXTT2=
EXTT3=
EXTT4=
EXTT5=
EXTT6=
EXTT7=
EXTT8=
EXTT9=
EXTT10=
EXTT11=
EXTT12=
EXTT13=
EXTT14=
PLAYORDER=
